# xmcd
#
# Track frame offsets: 
#        150
#        11390
#        26457
#        39180
#        54547
#        66460
#        78231
#        91757
#        105897
#        120801
#        135859
#        152222
#        166439
#        180053
#        193596
#        206936
#        220592
#        234524
#        243548
#        257883
#        272664
#        285278
#        298493
#        308772
#        322527
#
# Disc length: 4476 seconds
#
# Revision: 1
# Processed by: cddbd v1.5.2PL0 Copyright (c) Steve Scherf et al.
# Submitted via: ExactAudioCopy v1.3
#
DISCID=41117a19
DTITLE=Golden Age of American Sweet Bands - Volume 1 - 1929 - 1933
DYEAR=1933
DGENRE=Swing
TTITLE0=The Barnet Modernaires, Charlie Barnet and his Orch. - Let's Dan
TTITLE0=ce At The Make Believe Ballroom (1936)
TTITLE1=The Rollickers, Ben Selvin and his Orch. - Happy Days Are Here A
TTITLE1=gain (1930)
TTITLE2=Lew Conrad, Leo Reisman and his Orch. - Puttin' On The Ritz (193
TTITLE2=0)
TTITLE3=Biltmore Rhythm Boys, Bert Lown and his Hotel Biltmore Orch. - B
TTITLE3=ye Bye Blues (1930)
TTITLE4=Frank Sylvano, Isham Jones and his Orch. - Lonesome Lover (1930)
TTITLE5=Fred MacMurray, Gus Arnheim and his Orch. - All I Want Is Just O
TTITLE5=ne Girl (1930)
TTITLE6=Claire Hanlon and Trio, Fred Waring Pennsylvanians - Little Whit
TTITLE6=e Lies (1930)
TTITLE7=Paul Tremaine and his Orch. - Aristocratic Stomp (1929)
TTITLE8=Jane Froman, Henry Thies  and his Hotel Sinton Orch. - June Kiss
TTITLE8=es (1930)
TTITLE9=Lew Conrad, Leo Reisman and his Orch. - What Is This Thing Calle
TTITLE9=d Love (1930)
TTITLE10=Peter Fylling, Anson WeeksLew Conrad, Leo Reisman and his Hotel
TTITLE10=Mark Hopkins Orch. - You're My Everything (1932)
TTITLE11=Biltmore Trio, Bert Lown and his Hotel Biltmore Orch. - Heartac
TTITLE11=hes (1931)
TTITLE12=Bing Crosby and Loyce Whieman, Gus Arnheim and his Cocoanut Grove
TTITLE12=Orch. - Ho Hum (1931)
TTITLE13=Isham Jones and his Orch. - I Keep Remembering (1930)
TTITLE14=Joey Nash, Dick Himber and his Essex House Orch. - My Love (193
TTITLE14=3)
TTITLE15=Charles Buddy Rpgers, Buddy Rogers and his California Cavaliers
TTITLE15=Happy-Go-Lucky You (1932)
TTITLE16=Dinah Shore, Xavier Cugat& his Waldorf-Astoria Orch. - Yours 
TTITLE16=(1939)
TTITLE17=Art Wilson, Anson WeeksLew Conrad, Leo Reisman and his Hotel Ma
TTITLE17=rk Hopkins Orch. - Say It Isn't So (1932)
TTITLE18=Alice Faye, Rudy Vallee and his Connecticut Yankees - Honeymoon
TTITLE18=Hotel (1933)
TTITLE19=The Three Ambassodors, Phil Harris and his Cocoanut Grove Orch.
TTITLE19=Black-Eyed Susan Brown (1933)
TTITLE20=Terry Shand, Freddie Martin and his Orch. - Beautiful Girl (193
TTITLE20=3)
TTITLE21=Leon Belasco and Hotel St. Moritz Orch. - Sittin' On A Backyard
TTITLE21=Fence (1933)
TTITLE22=Fred Astaire, Leo Reisman and his Orch. - The Gold Diggers' Son
TTITLE22=g (1933)
TTITLE23=Rudy Vallee and his Connecticut Yankees - My Dancing Lady (1933
TTITLE23=)
TTITLE24=Abe Lyman and Californian Orch. - Keep Young And Beautiful (193
TTITLE24=3)
EXTD=YEAR: 1933
EXTT0=
EXTT1=
EXTT2=
EXTT3=
EXTT4=
EXTT5=
EXTT6=
EXTT7=
EXTT8=
EXTT9=
EXTT10=
EXTT11=
EXTT12=
EXTT13=
EXTT14=
EXTT15=
EXTT16=
EXTT17=
EXTT18=
EXTT19=
EXTT20=
EXTT21=
EXTT22=
EXTT23=
EXTT24=
PLAYORDER=
